<svg width="1100" height="700" viewBox="0 0 1100 700" fill="none" xmlns="http://www.w3.org/2000/svg">
<rect width="1100" height="700" fill="#F1F5F9"/><rect x="60" y="55" width="980" height="590" rx="36" fill="white" stroke="#E2E8F0" stroke-width="2"/>
<rect x="102" y="100" width="260" height="26" rx="13" fill="#0F172A"/><rect x="102" y="145" width="420" height="16" rx="8" fill="#CBD5E1"/>
<rect x="100" y="215" width="360" height="350" rx="28" fill="#EFF6FF"/><rect x="505" y="215" width="495" height="350" rx="28" fill="#F8FAFC" stroke="#E2E8F0"/>
<rect x="145" y="475" width="42" height="55" rx="10" fill="#22D3EE"/><rect x="210" y="420" width="42" height="110" rx="10" fill="#60A5FA"/><rect x="275" y="350" width="42" height="180" rx="10" fill="#2563EB"/><rect x="340" y="290" width="42" height="240" rx="10" fill="#1D4ED8"/>
<rect x="550" y="260" width="400" height="32" rx="16" fill="#E2E8F0"/><rect x="550" y="330" width="360" height="24" rx="12" fill="#CBD5E1"/><rect x="550" y="390" width="420" height="24" rx="12" fill="#CBD5E1"/><rect x="550" y="450" width="310" height="24" rx="12" fill="#CBD5E1"/>
<circle cx="950" cy="270" r="20" fill="#22D3EE"/><circle cx="950" cy="398" r="20" fill="#2563EB"/><circle cx="950" cy="462" r="20" fill="#10B981"/>
</svg>
